<?xml version="1.0" encoding="UTF-8" standalone="no"?>
<!DOCTYPE svg PUBLIC "-//W3C//DTD SVG 1.1//EN" "http://www.w3.org/Graphics/SVG/1.1/DTD/svg11.dtd">
<svg version="1.1" xmlns="http://www.w3.org/2000/svg" xmlns:xlink="http://www.w3.org/1999/xlink" preserveAspectRatio="xMidYMid meet" viewBox="0 0 235 75" width="235" height="75"><defs><path d="M40.62 0.12L42.13 0.28L43.62 0.49L45.1 0.76L46.56 1.09L47.99 1.47L49.4 1.91L50.78 2.4L52.14 2.95L53.48 3.54L54.78 4.19L56.06 4.88L57.31 5.62L58.52 6.41L59.7 7.24L60.85 8.11L61.96 9.03L63.04 9.99L64.08 10.99L65.08 12.03L66.04 13.1L66.96 14.21L67.83 15.36L68.66 16.54L69.45 17.75L70.19 19L70.89 20.27L71.53 21.58L72.13 22.91L72.67 24.27L73.16 25.65L73.6 27.06L73.99 28.49L74.31 29.95L74.59 31.42L74.8 32.91L74.95 34.43L75.05 35.96L75.08 37.5L75.05 39.04L74.95 40.57L74.8 42.09L74.59 43.58L74.31 45.05L73.99 46.51L73.6 47.94L73.16 49.35L72.67 50.73L72.13 52.09L71.53 53.42L70.89 54.73L70.19 56L69.45 57.25L68.66 58.46L67.83 59.64L66.96 60.79L66.04 61.9L65.08 62.97L64.08 64.01L63.04 65.01L61.96 65.97L60.85 66.89L59.7 67.76L58.52 68.59L57.31 69.38L56.06 70.12L54.78 70.81L53.48 71.46L52.14 72.05L50.78 72.6L49.4 73.09L47.99 73.53L46.56 73.91L45.1 74.24L43.62 74.51L42.13 74.72L40.62 74.88L39.09 74.97L37.54 75L35.99 74.97L34.46 74.88L32.95 74.72L31.45 74.51L29.98 74.24L28.52 73.91L27.09 73.53L25.68 73.09L24.29 72.6L22.93 72.05L21.6 71.46L20.29 70.81L19.02 70.12L17.77 69.38L16.56 68.59L15.37 67.76L14.23 66.89L13.11 65.97L12.04 65.01L11 64.01L10 62.97L9.04 61.9L8.12 60.79L7.25 59.64L6.41 58.46L5.63 57.25L4.89 56L4.19 54.73L3.55 53.42L2.95 52.09L2.41 50.73L1.92 49.35L1.48 47.94L1.09 46.51L0.76 45.05L0.49 43.58L0.28 42.09L0.12 40.57L0.03 39.04L0 37.5L0.03 35.96L0.12 34.43L0.28 32.91L0.49 31.42L0.76 29.95L1.09 28.49L1.48 27.06L1.92 25.65L2.41 24.27L2.95 22.91L3.55 21.58L4.19 20.27L4.89 19L5.63 17.75L6.41 16.54L7.25 15.36L8.12 14.21L9.04 13.1L10 12.03L11 10.99L12.04 9.99L13.11 9.03L14.23 8.11L15.37 7.24L16.56 6.41L17.77 5.62L19.02 4.88L20.29 4.19L21.6 3.54L22.93 2.95L24.29 2.4L25.68 1.91L27.09 1.47L28.52 1.09L29.98 0.76L31.45 0.49L32.95 0.28L34.46 0.12L35.99 0.03L37.54 0L39.09 0.03L40.62 0.12ZM34.89 10.13L33.59 10.28L32.32 10.5L31.06 10.77L29.82 11.1L28.61 11.48L27.42 11.92L26.26 12.41L25.13 12.96L24.02 13.55L22.95 14.19L21.91 14.88L20.9 15.61L19.93 16.38L19 17.2L18.1 18.06L17.24 18.96L16.42 19.89L15.65 20.86L14.91 21.87L14.23 22.91L13.59 23.99L13 25.09L12.45 26.22L11.96 27.38L11.52 28.57L11.14 29.78L10.81 31.02L10.54 32.28L10.32 33.56L10.16 34.85L10.07 36.17L10.04 37.5L10.07 38.83L10.16 40.15L10.32 41.44L10.54 42.72L10.81 43.98L11.14 45.22L11.52 46.43L11.96 47.62L12.45 48.78L13 49.91L13.59 51.01L14.23 52.09L14.91 53.13L15.65 54.14L16.42 55.11L17.24 56.04L18.1 56.94L19 57.8L19.93 58.62L20.9 59.39L21.91 60.12L22.95 60.81L24.02 61.45L25.13 62.04L26.26 62.59L27.42 63.08L28.61 63.52L29.82 63.9L31.06 64.23L32.32 64.5L33.59 64.72L34.89 64.87L36.21 64.97L37.54 65L38.87 64.97L40.19 64.87L41.48 64.72L42.76 64.5L44.02 64.23L45.26 63.9L46.47 63.52L47.66 63.08L48.82 62.59L49.95 62.04L51.05 61.45L52.13 60.81L53.17 60.12L54.17 59.39L55.15 58.62L56.08 57.8L56.98 56.94L57.84 56.04L58.66 55.11L59.43 54.14L60.16 53.13L60.85 52.09L61.49 51.01L62.08 49.91L62.62 48.78L63.12 47.62L63.55 46.43L63.94 45.22L64.27 43.98L64.54 42.72L64.76 41.44L64.91 40.15L65.01 38.83L65.04 37.5L65.01 36.17L64.91 34.85L64.76 33.56L64.54 32.28L64.27 31.02L63.94 29.78L63.55 28.57L63.12 27.38L62.62 26.22L62.08 25.09L61.49 23.99L60.85 22.91L60.16 21.87L59.43 20.86L58.66 19.89L57.84 18.96L56.98 18.06L56.08 17.2L55.15 16.38L54.17 15.61L53.17 14.88L52.13 14.19L51.05 13.55L49.95 12.96L48.82 12.41L47.66 11.92L46.47 11.48L45.26 11.1L44.02 10.77L42.76 10.5L41.48 10.28L40.19 10.13L38.87 10.03L37.54 10L36.21 10.03L34.89 10.13Z" id="h1pn4MnsxV"></path><path d="M155.04 37.5C155.04 58.2 138.22 75 117.5 75C96.78 75 79.96 58.2 79.96 37.5C79.96 16.8 96.78 0 117.5 0C138.22 0 155.04 16.8 155.04 37.5Z" id="lqPoNgSPS"></path><path d="M235 37.5C235 58.2 218.18 75 197.46 75C176.74 75 159.92 58.2 159.92 37.5C159.92 16.8 176.74 0 197.46 0C218.18 0 235 16.8 235 37.5Z" id="d5mNA2Dsmm"></path></defs><g><g><g><use xlink:href="#h1pn4MnsxV" opacity="1" fill="#313131" fill-opacity="1"></use></g><g><use xlink:href="#lqPoNgSPS" opacity="1" fill="#313131" fill-opacity="1"></use></g><g><use xlink:href="#d5mNA2Dsmm" opacity="1" fill="#313131" fill-opacity="1"></use></g></g></g></svg>