<?xml version="1.0" encoding="UTF-8" standalone="no"?>
<!DOCTYPE svg PUBLIC "-//W3C//DTD SVG 1.1//EN" "http://www.w3.org/Graphics/SVG/1.1/DTD/svg11.dtd">
<svg version="1.1" xmlns="http://www.w3.org/2000/svg" xmlns:xlink="http://www.w3.org/1999/xlink" preserveAspectRatio="xMidYMid meet" viewBox="0 0 160 160" width="160" height="160"><defs><path d="M48.78 0C52.18 0 54.94 2.76 54.94 6.16C54.94 36.93 54.94 123.07 54.94 153.84C54.94 157.24 52.18 160 48.78 160C45.08 160 40.15 160 36.45 160C33.05 160 30.29 157.24 30.29 153.84C30.29 123.07 30.29 36.93 30.29 6.16C30.29 2.76 33.05 0 36.45 0C40.15 0 45.08 0 48.78 0Z" id="e4CWitXUCO"></path><path d="M123.55 0C126.95 0 129.71 2.76 129.71 6.16C129.71 36.93 129.71 123.07 129.71 153.84C129.71 157.24 126.95 160 123.55 160C119.85 160 114.92 160 111.22 160C107.82 160 105.06 157.24 105.06 153.84C105.06 123.07 105.06 36.93 105.06 6.16C105.06 2.76 107.82 0 111.22 0C114.92 0 119.85 0 123.55 0Z" id="f5zTgcBET6"></path></defs><g><g><g><use xlink:href="#e4CWitXUCO" opacity="1" fill="#7e7e7e" fill-opacity="1"></use></g><g><use xlink:href="#f5zTgcBET6" opacity="1" fill="#7e7e7e" fill-opacity="1"></use></g></g></g></svg>