<?xml version="1.0" encoding="UTF-8" standalone="no"?>
<!DOCTYPE svg PUBLIC "-//W3C//DTD SVG 1.1//EN" "http://www.w3.org/Graphics/SVG/1.1/DTD/svg11.dtd">
<svg version="1.1" xmlns="http://www.w3.org/2000/svg" xmlns:xlink="http://www.w3.org/1999/xlink" preserveAspectRatio="xMidYMid meet" viewBox="0 0 640 640" width="320" height="320"><defs><path d="M616.53 444.44C616.53 552.37 483.99 640 320.74 640C157.48 640 24.94 552.37 24.94 444.44C24.94 336.51 157.48 248.88 320.74 248.88C483.99 248.88 616.53 336.51 616.53 444.44Z" id="e1NWoMqVAx"></path><path d="M523.76 203.03C523.76 315.08 432.79 406.05 320.74 406.05C208.68 406.05 117.71 315.08 117.71 203.03C117.71 90.97 208.68 0 320.74 0C432.79 0 523.76 90.97 523.76 203.03Z" id="aquzYs1lQ"></path><path d="M289.17 159.95C289.17 183.72 269.87 203.03 246.1 203.03C222.32 203.03 203.02 183.72 203.02 159.95C203.02 136.17 222.32 116.87 246.1 116.87C269.87 116.87 289.17 136.17 289.17 159.95Z" id="a846ntd29"></path><path d="M438.67 159.95C438.67 183.72 419.37 203.03 395.59 203.03C371.82 203.03 352.51 183.72 352.51 159.95C352.51 136.17 371.82 116.87 395.59 116.87C419.37 116.87 438.67 136.17 438.67 159.95Z" id="e35qbvD6K"></path><path d="M409.7 159.95C409.7 167.74 403.38 174.06 395.59 174.06C387.8 174.06 381.48 167.74 381.48 159.95C381.48 152.16 387.8 145.83 395.59 145.83C403.38 145.83 409.7 152.16 409.7 159.95Z" id="e3LWKpZ7wJ"></path><path d="M260.21 159.95C260.21 167.74 253.88 174.06 246.1 174.06C238.31 174.06 231.98 167.74 231.98 159.95C231.98 152.16 238.31 145.83 246.1 145.83C253.88 145.83 260.21 152.16 260.21 159.95Z" id="fC7nVtSrw"></path><path d="M285.77 89.47C288.02 89.86 289.51 92 289.12 94.24C288.69 96.68 288.12 99.93 287.69 102.37C287.29 104.62 285.15 106.11 282.91 105.72C270.01 103.45 235.39 97.34 222.5 95.07C220.26 94.67 218.76 92.53 219.15 90.29C219.58 87.85 220.16 84.6 220.59 82.16C220.98 79.92 223.12 78.42 225.37 78.82C238.26 81.09 272.88 87.19 285.77 89.47Z" id="bs5wMB6WW"></path><path d="M416.33 78.82C418.57 78.42 420.71 79.92 421.11 82.16C421.54 84.6 422.11 87.85 422.54 90.29C422.94 92.53 421.44 94.67 419.19 95.07C406.3 97.34 371.68 103.45 358.79 105.72C356.55 106.12 354.41 104.62 354.01 102.38C353.58 99.94 353.01 96.69 352.58 94.25C352.18 92.01 353.68 89.87 355.92 89.47C368.82 87.2 403.43 81.09 416.33 78.82Z" id="b39SwzBJre"></path></defs><g><g><g><use xlink:href="#e1NWoMqVAx" opacity="1" fill="#4069ed" fill-opacity="1"></use></g><g><use xlink:href="#aquzYs1lQ" opacity="1" fill="#eac39d" fill-opacity="1"></use></g><g><use xlink:href="#a846ntd29" opacity="1" fill="#ffffff" fill-opacity="1"></use></g><g><use xlink:href="#e35qbvD6K" opacity="1" fill="#ffffff" fill-opacity="1"></use></g><g><use xlink:href="#e3LWKpZ7wJ" opacity="1" fill="#000000" fill-opacity="1"></use></g><g><use xlink:href="#fC7nVtSrw" opacity="1" fill="#000000" fill-opacity="1"></use></g><g><use xlink:href="#bs5wMB6WW" opacity="1" fill="#906240" fill-opacity="1"></use></g><g><use xlink:href="#b39SwzBJre" opacity="1" fill="#906240" fill-opacity="1"></use></g></g></g></svg>