<?xml version="1.0" encoding="UTF-8" standalone="no"?>
<!DOCTYPE svg PUBLIC "-//W3C//DTD SVG 1.1//EN" "http://www.w3.org/Graphics/SVG/1.1/DTD/svg11.dtd">
<svg version="1.1" xmlns="http://www.w3.org/2000/svg" xmlns:xlink="http://www.w3.org/1999/xlink" preserveAspectRatio="xMidYMid meet" viewBox="0 0 640 640" width="320" height="320"><defs><path d="M616.53 444.44C616.53 552.37 483.99 640 320.74 640C157.48 640 24.94 552.37 24.94 444.44C24.94 336.51 157.48 248.88 320.74 248.88C483.99 248.88 616.53 336.51 616.53 444.44Z" id="e1NWoMqVAx"></path><path d="M523.76 203.03C523.76 315.08 432.79 406.05 320.74 406.05C208.68 406.05 117.71 315.08 117.71 203.03C117.71 90.97 208.68 0 320.74 0C432.79 0 523.76 90.97 523.76 203.03Z" id="aquzYs1lQ"></path><path d="M289.17 159.95C289.17 183.72 269.87 203.03 246.1 203.03C222.32 203.03 203.02 183.72 203.02 159.95C203.02 136.17 222.32 116.87 246.1 116.87C269.87 116.87 289.17 136.17 289.17 159.95Z" id="a846ntd29"></path><path d="M438.67 159.95C438.67 183.72 419.37 203.03 395.59 203.03C371.82 203.03 352.51 183.72 352.51 159.95C352.51 136.17 371.82 116.87 395.59 116.87C419.37 116.87 438.67 136.17 438.67 159.95Z" id="e35qbvD6K"></path><path d="M409.7 159.95C409.7 167.74 403.38 174.06 395.59 174.06C387.8 174.06 381.48 167.74 381.48 159.95C381.48 152.16 387.8 145.83 395.59 145.83C403.38 145.83 409.7 152.16 409.7 159.95Z" id="e3LWKpZ7wJ"></path><path d="M260.21 159.95C260.21 167.74 253.88 174.06 246.1 174.06C238.31 174.06 231.98 167.74 231.98 159.95C231.98 152.16 238.31 145.83 246.1 145.83C253.88 145.83 260.21 152.16 260.21 159.95Z" id="fC7nVtSrw"></path><path d="M268.58 81.9C270.24 81.67 271.77 82.83 271.99 84.49C272.24 86.3 272.57 88.7 272.81 90.5C273.04 92.16 271.88 93.69 270.22 93.92C257.03 95.72 220.47 100.71 207.28 102.52C205.62 102.74 204.09 101.58 203.87 99.92C203.62 98.12 203.29 95.71 203.04 93.91C202.82 92.25 203.98 90.72 205.64 90.49C218.83 88.69 255.39 83.7 268.58 81.9Z" id="bV0faE4ue"></path><path d="M436.05 90.49C437.71 90.72 438.87 92.25 438.64 93.91C438.4 95.71 438.07 98.12 437.82 99.92C437.59 101.58 436.07 102.74 434.41 102.52C421.22 100.71 384.66 95.72 371.47 93.91C369.81 93.69 368.65 92.16 368.87 90.5C369.12 88.69 369.45 86.29 369.69 84.49C369.92 82.83 371.45 81.67 373.11 81.89C386.3 83.7 422.86 88.69 436.05 90.49Z" id="dSMOhoIZ0"></path></defs><g><g><g><use xlink:href="#e1NWoMqVAx" opacity="1" fill="#4069ed" fill-opacity="1"></use></g><g><use xlink:href="#aquzYs1lQ" opacity="1" fill="#eac39d" fill-opacity="1"></use></g><g><use xlink:href="#a846ntd29" opacity="1" fill="#ffffff" fill-opacity="1"></use></g><g><use xlink:href="#e35qbvD6K" opacity="1" fill="#ffffff" fill-opacity="1"></use></g><g><use xlink:href="#e3LWKpZ7wJ" opacity="1" fill="#000000" fill-opacity="1"></use></g><g><use xlink:href="#fC7nVtSrw" opacity="1" fill="#000000" fill-opacity="1"></use></g><g><use xlink:href="#bV0faE4ue" opacity="1" fill="#574537" fill-opacity="1"></use></g><g><use xlink:href="#dSMOhoIZ0" opacity="1" fill="#574537" fill-opacity="1"></use></g></g></g></svg>