<?xml version="1.0" encoding="UTF-8" standalone="no"?>
<!DOCTYPE svg PUBLIC "-//W3C//DTD SVG 1.1//EN" "http://www.w3.org/Graphics/SVG/1.1/DTD/svg11.dtd">
<svg version="1.1" xmlns="http://www.w3.org/2000/svg" xmlns:xlink="http://www.w3.org/1999/xlink" preserveAspectRatio="xMidYMid meet" viewBox="0 0 640 640" width="320" height="320"><defs><path d="M616.53 444.44C616.53 552.37 483.99 640 320.74 640C157.48 640 24.94 552.37 24.94 444.44C24.94 336.51 157.48 248.88 320.74 248.88C483.99 248.88 616.53 336.51 616.53 444.44Z" id="e1NWoMqVAx"></path><path d="M523.76 203.03C523.76 315.08 432.79 406.05 320.74 406.05C208.68 406.05 117.71 315.08 117.71 203.03C117.71 90.97 208.68 0 320.74 0C432.79 0 523.76 90.97 523.76 203.03Z" id="aquzYs1lQ"></path><path d="M289.17 159.95C289.17 183.72 269.87 203.03 246.1 203.03C222.32 203.03 203.02 183.72 203.02 159.95C203.02 136.17 222.32 116.87 246.1 116.87C269.87 116.87 289.17 136.17 289.17 159.95Z" id="a846ntd29"></path><path d="M438.67 159.95C438.67 183.72 419.37 203.03 395.59 203.03C371.82 203.03 352.51 183.72 352.51 159.95C352.51 136.17 371.82 116.87 395.59 116.87C419.37 116.87 438.67 136.17 438.67 159.95Z" id="e35qbvD6K"></path><path d="M409.7 159.95C409.7 167.74 403.38 174.06 395.59 174.06C387.8 174.06 381.48 167.74 381.48 159.95C381.48 152.16 387.8 145.83 395.59 145.83C403.38 145.83 409.7 152.16 409.7 159.95Z" id="e3LWKpZ7wJ"></path><path d="M260.21 159.95C260.21 167.74 253.88 174.06 246.1 174.06C238.31 174.06 231.98 167.74 231.98 159.95C231.98 152.16 238.31 145.83 246.1 145.83C253.88 145.83 260.21 152.16 260.21 159.95Z" id="fC7nVtSrw"></path><path d="M267.71 78.61C269.97 78.37 272 80.02 272.24 82.28C272.5 84.74 272.85 88.03 273.11 90.49C273.35 92.75 271.71 94.79 269.44 95.02C256.42 96.4 221.46 100.09 208.44 101.47C206.18 101.71 204.15 100.07 203.91 97.8C203.65 95.34 203.3 92.06 203.04 89.59C202.8 87.33 204.44 85.3 206.71 85.06C219.73 83.68 254.69 79.99 267.71 78.61Z" id="b88wNfE4S"></path><path d="M434.98 85.05C437.24 85.29 438.89 87.33 438.65 89.59C438.39 92.05 438.04 95.34 437.78 97.8C437.54 100.06 435.51 101.71 433.24 101.47C420.22 100.09 385.27 96.4 372.25 95.02C369.98 94.79 368.34 92.75 368.58 90.49C368.84 88.03 369.18 84.74 369.44 82.28C369.68 80.02 371.71 78.37 373.98 78.61C387 79.99 421.96 83.68 434.98 85.05Z" id="apwifW1lh"></path></defs><g><g><g><use xlink:href="#e1NWoMqVAx" opacity="1" fill="#4069ed" fill-opacity="1"></use></g><g><use xlink:href="#aquzYs1lQ" opacity="1" fill="#eac39d" fill-opacity="1"></use></g><g><use xlink:href="#a846ntd29" opacity="1" fill="#ffffff" fill-opacity="1"></use></g><g><use xlink:href="#e35qbvD6K" opacity="1" fill="#ffffff" fill-opacity="1"></use></g><g><use xlink:href="#e3LWKpZ7wJ" opacity="1" fill="#000000" fill-opacity="1"></use></g><g><use xlink:href="#fC7nVtSrw" opacity="1" fill="#000000" fill-opacity="1"></use></g><g><use xlink:href="#b88wNfE4S" opacity="1" fill="#8c8885" fill-opacity="1"></use></g><g><use xlink:href="#apwifW1lh" opacity="1" fill="#8c8885" fill-opacity="1"></use></g></g></g></svg>